<svg xmlns="http://www.w3.org/2000/svg" viewBox="0 0 420 360" role="img" aria-hidden="true">
  <!-- NeuroBridge decorative brain motif: original soft line art in the warm
       palette (mocha / caramel / champagne) with a few neural nodes. Used as a
       very-low-opacity background accent; no background fill on purpose. -->
  <g fill="none" stroke="#b78358" stroke-width="5" stroke-linecap="round" stroke-linejoin="round">
    <path d="M210 52 C168 30 128 44 122 78 C86 78 66 108 82 136 C58 152 60 192 88 204 C82 236 108 262 140 256 C150 290 196 300 210 272"/>
    <path d="M210 52 C252 30 292 44 298 78 C334 78 354 108 338 136 C362 152 360 192 332 204 C338 236 312 262 280 256 C270 290 224 300 210 272"/>
  </g>
  <path d="M210 56 V270" fill="none" stroke="#d9b996" stroke-width="4.5" stroke-linecap="round"/>
  <g fill="none" stroke="#c99a63" stroke-width="4" stroke-linecap="round" opacity="0.85">
    <path d="M150 96 C170 88 182 104 168 118"/>
    <path d="M270 96 C250 88 238 104 252 118"/>
    <path d="M120 160 C140 152 152 168 140 182"/>
    <path d="M300 160 C280 152 268 168 280 182"/>
    <path d="M160 216 C178 208 190 222 178 236"/>
    <path d="M260 216 C242 208 230 222 242 236"/>
  </g>
  <g fill="none" stroke="#e2be79" stroke-width="2.4" opacity="0.9">
    <path d="M210 120 L246 142 L232 180"/>
    <path d="M210 120 L174 148 L188 184"/>
  </g>
  <g fill="#e2be79">
    <circle cx="210" cy="120" r="7"/>
    <circle cx="246" cy="142" r="5"/>
    <circle cx="232" cy="180" r="6"/>
    <circle cx="174" cy="148" r="5"/>
    <circle cx="188" cy="184" r="6"/>
  </g>
</svg>
