<svg xmlns="http://www.w3.org/2000/svg" viewBox="0 0 100 100" role="img" aria-label="NeuroBridge">
  <defs>
    <linearGradient id="fb" x1="0" y1="0" x2="1" y2="1">
      <stop offset="0" stop-color="#5a3e2b"/><stop offset="1" stop-color="#2c2119"/>
    </linearGradient>
  </defs>
  <rect width="100" height="100" rx="24" fill="url(#fb)"/>
  <g fill="none" stroke="#e2be79" stroke-width="4.6" stroke-linecap="round" stroke-linejoin="round">
    <path d="M50 22 C40 18 33 24 34 31 C26 31 23 40 29 44 C24 49 27 58 35 58 C40 64 50 64 50 58"/>
    <path d="M50 22 C60 18 67 24 66 31 C74 31 77 40 71 44 C76 49 73 58 65 58 C60 64 50 64 50 58"/>
  </g>
  <path d="M50 23 V58" fill="none" stroke="#8fae9b" stroke-width="4" stroke-linecap="round"/>
  <path d="M18 74 C36 46 64 46 82 74" fill="none" stroke="#e2be79" stroke-width="6" stroke-linecap="round"/>
  <path d="M18 78 H82" stroke="#f6ecdd" stroke-width="4" stroke-linecap="round" opacity="0.6"/>
  <circle cx="18" cy="78" r="6" fill="#e2be79"/>
  <circle cx="82" cy="78" r="6" fill="#e2be79"/>
</svg>
