<svg xmlns="http://www.w3.org/2000/svg" viewBox="0 0 400 400" role="img" aria-labelledby="mtTitle mtDesc">
  <title id="mtTitle">NeuroBridge Memory Tree</title>
  <desc id="mtDesc">An original illustration of a growing tree whose blossoms represent family memories and completed sessions.</desc>
  <defs>
    <linearGradient id="trunk" x1="0" y1="1" x2="0" y2="0">
      <stop offset="0" stop-color="#8a6a3f"/><stop offset="1" stop-color="#5a3e2b"/>
    </linearGradient>
    <radialGradient id="canopy" cx="0.5" cy="0.4" r="0.7">
      <stop offset="0" stop-color="#8fae9b"/><stop offset="1" stop-color="#2f6f5e"/>
    </radialGradient>
    <linearGradient id="ground" x1="0" y1="0" x2="1" y2="0">
      <stop offset="0" stop-color="#e8dcc6"/><stop offset="1" stop-color="#efe3d2"/>
    </linearGradient>
  </defs>
  <ellipse cx="200" cy="356" rx="150" ry="20" fill="url(#ground)"/>
  <circle cx="200" cy="150" r="128" fill="url(#canopy)" opacity="0.18"/>
  <g fill="none" stroke="url(#trunk)" stroke-width="7" stroke-linecap="round" opacity="0.85">
    <path d="M200 340 C176 348 158 350 138 352"/>
    <path d="M200 340 C224 348 244 350 264 352"/>
  </g>
  <path d="M188 344 C186 300 190 262 196 232 C200 214 200 200 200 188
           C200 200 202 214 206 232 C212 262 214 300 212 344 Z" fill="url(#trunk)"/>
  <g fill="none" stroke="url(#trunk)" stroke-width="8" stroke-linecap="round">
    <path d="M200 214 C168 196 146 176 128 150"/>
    <path d="M200 206 C232 190 256 172 276 146"/>
    <path d="M200 196 C196 168 196 142 200 116"/>
    <path d="M180 200 C160 214 142 220 122 222"/>
    <path d="M220 200 C240 214 258 220 278 222"/>
  </g>
  <g>
    <g transform="translate(128 150)">
      <circle r="20" fill="#e2be79"/>
      <path d="M0 6 C-6 -2 -14 2 -8 9 L0 15 L8 9 C14 2 6 -2 0 6 Z" fill="#5a3e2b" transform="scale(0.7)"/>
    </g>
    <g transform="translate(276 146)">
      <circle r="22" fill="#8fae9b"/>
      <rect x="-9" y="-7" width="18" height="14" rx="3" fill="#fff9f0" opacity="0.95"/>
      <circle cx="-3" cy="-1" r="2.4" fill="#2f6f5e"/>
      <path d="M-9 6 L-2 0 L2 3 L6 -2 L9 6 Z" fill="#2f6f5e"/>
    </g>
    <g transform="translate(200 108)">
      <circle r="24" fill="#c99a63"/>
      <path d="M0 7 C-7 -3 -17 3 -9 11 L0 18 L9 11 C17 3 7 -3 0 7 Z" fill="#fff9f0" transform="scale(0.7)" opacity="0.95"/>
    </g>
    <g transform="translate(122 222)">
      <circle r="17" fill="#a9c4b4"/>
      <rect x="-7" y="-5" width="14" height="11" rx="2.5" fill="#fff9f0" opacity="0.95"/>
    </g>
    <g transform="translate(278 222)">
      <circle r="18" fill="#e2be79"/>
      <path d="M0 5 C-5 -2 -12 2 -7 8 L0 13 L7 8 C12 2 5 -2 0 5 Z" fill="#5a3e2b" transform="scale(0.7)"/>
    </g>
    <circle cx="165" cy="128" r="8" fill="#ecd7a9"/>
    <circle cx="235" cy="126" r="8" fill="#bcd4c6"/>
    <circle cx="150" cy="188" r="7" fill="#cbe0d4"/>
    <circle cx="250" cy="188" r="7" fill="#ecd7a9"/>
  </g>
  <g fill="#e2be79" opacity="0.7">
    <circle cx="96" cy="196" r="3"/><circle cx="308" cy="176" r="3"/><circle cx="188" cy="80" r="2.6"/>
  </g>
</svg>
