<svg xmlns="http://www.w3.org/2000/svg" viewBox="0 0 480 360" role="img" aria-labelledby="ctTitle ctDesc">
  <title id="ctTitle">Clinic and care team</title>
  <desc id="ctDesc">A soft illustration placeholder of a small clinic building with a care team — original artwork, not a real photo.</desc>
  <defs>
    <linearGradient id="ctBg" x1="0" y1="0" x2="1" y2="1">
      <stop offset="0" stop-color="#fbf3e6"/><stop offset="1" stop-color="#e8dcc6"/>
    </linearGradient>
    <linearGradient id="ctBuild" x1="0" y1="0" x2="0" y2="1">
      <stop offset="0" stop-color="#c99a63"/><stop offset="1" stop-color="#7a5b43"/>
    </linearGradient>
  </defs>
  <rect width="480" height="360" rx="22" fill="url(#ctBg)"/>
  <circle cx="410" cy="72" r="60" fill="#8fae9b" opacity="0.18"/>
  <g transform="translate(250 70)">
    <rect x="-96" y="0" width="192" height="150" rx="12" fill="url(#ctBuild)"/>
    <rect x="-96" y="0" width="192" height="30" rx="12" fill="#5a3e2b"/>
    <g fill="#fff9f0">
      <rect x="-12" y="46" width="24" height="8" rx="2"/>
      <rect x="-4" y="38" width="8" height="24" rx="2"/>
    </g>
    <g fill="#f6ecdd" opacity="0.92">
      <rect x="-78" y="78" width="30" height="24" rx="4"/>
      <rect x="-15" y="78" width="30" height="24" rx="4"/>
      <rect x="48" y="78" width="30" height="24" rx="4"/>
      <rect x="-78" y="116" width="30" height="24" rx="4"/>
      <rect x="48" y="116" width="30" height="24" rx="4"/>
    </g>
    <rect x="-15" y="112" width="30" height="38" rx="5" fill="#f6ecdd"/>
  </g>
  <ellipse cx="240" cy="330" rx="170" ry="15" fill="#5a3e2b" opacity="0.10"/>
  <g transform="translate(150 250)">
    <path d="M-34 76 C-34 40 -18 26 0 26 C18 26 34 40 34 76 Z" fill="#fff9f0" stroke="#e6d8bf"/>
    <rect x="-7" y="12" width="14" height="16" rx="6" fill="#e0a877"/>
    <circle cx="0" cy="-6" r="22" fill="#e8b487"/>
    <path d="M-22 -8 C-22 -30 -10 -38 0 -38 C10 -38 22 -30 22 -8 C14 -22 -14 -22 -22 -8Z" fill="#3a2b1f"/>
    <path d="M-10 40 C-16 56 -16 70 -4 74" fill="none" stroke="#2f6f5e" stroke-width="3"/>
    <circle cx="-4" cy="76" r="5" fill="#e2be79" stroke="#2f6f5e" stroke-width="2"/>
  </g>
  <g transform="translate(240 258)">
    <path d="M-36 72 C-36 36 -18 22 0 22 C18 22 36 36 36 72 Z" fill="#8fae9b"/>
    <rect x="-7" y="8" width="14" height="16" rx="6" fill="#f0c39a"/>
    <circle cx="0" cy="-10" r="22" fill="#f0c39a"/>
    <path d="M-22 -12 C-22 -34 -10 -42 0 -42 C10 -42 22 -34 22 -12 C12 -30 -12 -30 -22 -12Z" fill="#d7cbb8"/>
    <g fill="none" stroke="#5a3e2b" stroke-width="2"><circle cx="-8" cy="-10" r="6"/><circle cx="8" cy="-10" r="6"/><path d="M-2 -10H2"/></g>
  </g>
  <g transform="translate(330 250)">
    <path d="M-34 76 C-34 40 -18 26 0 26 C18 26 34 40 34 76 Z" fill="#c99a63"/>
    <rect x="-7" y="12" width="14" height="16" rx="6" fill="#e8a97f"/>
    <circle cx="0" cy="-6" r="22" fill="#f2b98c"/>
    <path d="M-22 -8 C-22 -30 -10 -38 0 -38 C10 -38 22 -30 22 -8 C14 -22 -14 -22 -22 -8Z" fill="#5a3b26"/>
  </g>
</svg>
