<svg xmlns="http://www.w3.org/2000/svg" viewBox="0 0 480 360" role="img" aria-labelledby="fsTitle fsDesc">
  <title id="fsTitle">Family supporting an older adult</title>
  <desc id="fsDesc">A soft illustration placeholder of a family standing together with a heart symbol — original artwork, not a real photo.</desc>
  <defs>
    <linearGradient id="fsBg" x1="0" y1="0" x2="1" y2="1">
      <stop offset="0" stop-color="#fcfaf3"/><stop offset="1" stop-color="#e6d4b8"/>
    </linearGradient>
  </defs>
  <rect width="480" height="360" rx="22" fill="url(#fsBg)"/>
  <circle cx="240" cy="70" r="52" fill="#e2be79" opacity="0.30"/>
  <path d="M240 44 C234 34 218 38 218 50 C218 60 232 68 240 78 C248 68 262 60 262 50 C262 38 246 34 240 44 Z" fill="#e2be79"/>
  <ellipse cx="240" cy="326" rx="180" ry="16" fill="#5a3e2b" opacity="0.10"/>
  <g transform="translate(240 196)">
    <path d="M-58 140 C-58 74 -34 48 0 48 C34 48 58 74 58 140 Z" fill="#7a5b43"/>
    <rect x="-11" y="26" width="22" height="24" rx="9" fill="#e8b98f"/>
    <circle cx="0" cy="-6" r="34" fill="#f0c39a"/>
    <path d="M-34 -8 C-34 -40 -16 -50 0 -50 C16 -50 34 -40 34 -8 C22 -30 -22 -30 -34 -8Z" fill="#d7cbb8"/>
    <g fill="none" stroke="#5a3e2b" stroke-width="2.6"><circle cx="-12" cy="-4" r="9"/><circle cx="12" cy="-4" r="9"/><path d="M-3 -4H3"/></g>
    <path d="M-9 12 C-3 20 3 20 9 12" fill="none" stroke="#9a5a3a" stroke-width="2.6" stroke-linecap="round"/>
  </g>
  <g transform="translate(126 214)">
    <path d="M-46 122 C-46 70 -26 48 0 48 C26 48 46 70 46 122 Z" fill="#8fae9b"/>
    <rect x="-9" y="28" width="18" height="22" rx="8" fill="#e8a97f"/>
    <circle cx="0" cy="0" r="30" fill="#f2b98c"/>
    <path d="M-30 -4 C-30 -34 -14 -44 0 -44 C14 -44 30 -34 30 -4 C30 -20 -30 -20 -30 -4Z" fill="#5a3b26"/>
    <circle cx="-10" cy="-2" r="2.6" fill="#3a2a1c"/><circle cx="10" cy="-2" r="2.6" fill="#3a2a1c"/>
    <path d="M-8 12 C-3 18 3 18 8 12" fill="none" stroke="#7a4a2e" stroke-width="2.6" stroke-linecap="round"/>
  </g>
  <g transform="translate(354 214)">
    <path d="M-46 122 C-46 70 -26 48 0 48 C26 48 46 70 46 122 Z" fill="#c99a63"/>
    <rect x="-9" y="28" width="18" height="22" rx="8" fill="#d99a68"/>
    <circle cx="0" cy="0" r="30" fill="#e0a877"/>
    <path d="M-30 -6 C-30 -40 -12 -46 0 -46 C12 -46 30 -40 30 -6 C30 -18 24 -26 0 -26 C-8 -26 -22 -22 -30 -6Z" fill="#3a2b1f"/>
    <circle cx="-10" cy="-2" r="2.6" fill="#2b2b2b"/><circle cx="10" cy="-2" r="2.6" fill="#2b2b2b"/>
    <path d="M-8 12 C-3 18 3 18 8 12" fill="none" stroke="#7a4a2e" stroke-width="2.6" stroke-linecap="round"/>
  </g>
</svg>
