<svg xmlns="http://www.w3.org/2000/svg" viewBox="0 0 480 360" role="img" aria-labelledby="oaTitle oaDesc">
  <title id="oaTitle">Older adult in supportive daily care</title>
  <desc id="oaDesc">A soft illustration placeholder of a smiling older adult with a caring heart symbol — original artwork, not a real photo.</desc>
  <defs>
    <linearGradient id="oaBg" x1="0" y1="0" x2="1" y2="1">
      <stop offset="0" stop-color="#fcfaf3"/><stop offset="1" stop-color="#e8dcc6"/>
    </linearGradient>
    <linearGradient id="oaCard" x1="0" y1="0" x2="0" y2="1">
      <stop offset="0" stop-color="#c99a63"/><stop offset="1" stop-color="#7a5b43"/>
    </linearGradient>
  </defs>
  <rect width="480" height="360" rx="22" fill="url(#oaBg)"/>
  <circle cx="392" cy="70" r="70" fill="#e2be79" opacity="0.28"/>
  <circle cx="70" cy="300" r="60" fill="#8fae9b" opacity="0.20"/>
  <g transform="translate(60 214)">
    <rect x="-16" y="60" width="42" height="40" rx="8" fill="#7a5b43"/>
    <path d="M6 60 C6 20 -18 12 -20 -6 C2 4 12 24 6 60Z" fill="#8fae9b"/>
    <path d="M6 60 C6 24 30 14 34 -4 C14 6 4 26 6 60Z" fill="#a9c4b4"/>
  </g>
  <ellipse cx="250" cy="322" rx="120" ry="16" fill="#5a3e2b" opacity="0.10"/>
  <g transform="translate(250 190)">
    <path d="M-78 150 C-78 70 -46 40 0 40 C46 40 78 70 78 150 Z" fill="url(#oaCard)"/>
    <path d="M-14 44 H14 V78 H-14 Z" fill="#f2e9d6"/>
    <rect x="-13" y="18" width="26" height="26" rx="10" fill="#e8b98f"/>
    <circle cx="0" cy="-14" r="42" fill="#f0c39a"/>
    <path d="M-44 -18 C-44 -54 -22 -66 0 -66 C22 -66 44 -54 44 -18 C30 -40 -30 -40 -44 -18Z" fill="#d7cbb8"/>
    <path d="M-44 -14 C-48 4 -40 14 -34 12 C-40 -2 -40 -10 -38 -18Z" fill="#d7cbb8"/>
    <path d="M44 -14 C48 4 40 14 34 12 C40 -2 40 -10 38 -18Z" fill="#d7cbb8"/>
    <g fill="none" stroke="#5a3e2b" stroke-width="3">
      <circle cx="-16" cy="-12" r="12"/><circle cx="16" cy="-12" r="12"/><path d="M-4 -12 H4"/>
    </g>
    <path d="M-12 8 C-4 18 4 18 12 8" fill="none" stroke="#9a5a3a" stroke-width="3" stroke-linecap="round"/>
  </g>
  <g transform="translate(372 210)">
    <rect x="-34" y="-30" width="68" height="60" rx="14" fill="#fff9f0" stroke="#e3d3bb"/>
    <path d="M0 12 C-12 -2 -28 6 -18 18 L0 32 L18 18 C28 6 12 -2 0 12 Z" fill="#e2be79" transform="translate(0 -6) scale(0.8)"/>
  </g>
</svg>
