<svg xmlns="http://www.w3.org/2000/svg" viewBox="0 0 480 360" role="img" aria-labelledby="tsTitle tsDesc">
  <title id="tsTitle">Supportive therapy activity session</title>
  <desc id="tsDesc">A soft illustration placeholder of a therapist and a person doing a tablet activity together — original artwork, not a real photo.</desc>
  <defs>
    <linearGradient id="tsBg" x1="0" y1="0" x2="1" y2="1">
      <stop offset="0" stop-color="#fbf5ea"/><stop offset="1" stop-color="#e8dcc6"/>
    </linearGradient>
  </defs>
  <rect width="480" height="360" rx="22" fill="url(#tsBg)"/>
  <circle cx="400" cy="80" r="60" fill="#8fae9b" opacity="0.20"/>
  <circle cx="70" cy="300" r="56" fill="#e2be79" opacity="0.26"/>
  <ellipse cx="240" cy="320" rx="180" ry="16" fill="#5a3e2b" opacity="0.10"/>
  <rect x="150" y="238" width="180" height="16" rx="8" fill="#7a5b43"/>
  <rect x="164" y="254" width="10" height="56" rx="4" fill="#5a3e2b"/>
  <rect x="306" y="254" width="10" height="56" rx="4" fill="#5a3e2b"/>
  <g transform="translate(240 214)">
    <rect x="-40" y="0" width="80" height="30" rx="6" fill="#3a2b1f"/>
    <rect x="-35" y="4" width="70" height="22" rx="4" fill="#a9c4b4"/>
    <circle cx="-16" cy="15" r="5" fill="#2f6f5e"/><circle cx="4" cy="15" r="5" fill="#c99a63"/><circle cx="24" cy="15" r="5" fill="#e2be79"/>
  </g>
  <g transform="translate(146 172)">
    <path d="M-42 118 C-42 68 -24 46 0 46 C24 46 42 68 42 118 Z" fill="#8fae9b"/>
    <rect x="-9" y="26" width="18" height="22" rx="8" fill="#e0a877"/>
    <circle cx="0" cy="0" r="30" fill="#e8b487"/>
    <path d="M-30 -4 C-30 -34 -14 -44 0 -44 C14 -44 30 -34 30 -4 C22 -22 -22 -22 -30 -4Z" fill="#3a2b1f"/>
    <circle cx="-10" cy="-2" r="2.6" fill="#2b2b2b"/><circle cx="10" cy="-2" r="2.6" fill="#2b2b2b"/>
    <path d="M-8 12 C-3 18 3 18 8 12" fill="none" stroke="#7a4a2e" stroke-width="2.6" stroke-linecap="round"/>
  </g>
  <g transform="translate(334 172)">
    <path d="M-42 118 C-42 68 -24 46 0 46 C24 46 42 68 42 118 Z" fill="#c99a63"/>
    <rect x="-9" y="26" width="18" height="22" rx="8" fill="#f0c39a"/>
    <circle cx="0" cy="0" r="30" fill="#f0c39a"/>
    <path d="M-30 -2 C-30 -34 -14 -44 0 -44 C14 -44 30 -34 30 -2 C18 -24 -18 -24 -30 -2Z" fill="#d7cbb8"/>
    <g fill="none" stroke="#5a3e2b" stroke-width="2.4"><circle cx="-11" cy="-2" r="8"/><circle cx="11" cy="-2" r="8"/><path d="M-3 -2H3"/></g>
    <path d="M-8 12 C-3 18 3 18 8 12" fill="none" stroke="#9a5a3a" stroke-width="2.6" stroke-linecap="round"/>
  </g>
</svg>
